<?xml version="1.0" encoding="utf-8"?>
<!-- Generator: Adobe Illustrator 16.0.1, SVG Export Plug-In . SVG Version: 6.00 Build 0)  -->
<!DOCTYPE svg PUBLIC "-//W3C//DTD SVG 1.1//EN" "http://www.w3.org/Graphics/SVG/1.1/DTD/svg11.dtd">
<svg version="1.1" id="Layer_1" xmlns="http://www.w3.org/2000/svg" xmlns:xlink="http://www.w3.org/1999/xlink" x="0px" y="0px"
	 width="451px" height="453px" viewBox="208.445 67.141 451 453" enable-background="new 208.445 67.141 451 453"
	 xml:space="preserve">
<g>
	<path fill="#b5b7b9" d="M525.864,265.11c0-15.7-27.322-15.837-27.658-0.099v23.785l27.581-0.006L525.864,265.11z"/>
	<path fill="#b5b7b9" d="M434.114,72.249c-122.169,0-221.213,99.033-221.213,221.2c0.001,122.153,99.044,221.186,221.213,221.186
		c122.188,0,221.217-99.028,221.217-221.186C655.331,171.282,556.302,72.249,434.114,72.249z M266.183,337.47v-72.36
		c-0.536-40.966,71.494-40.993,70.171,1.035v12.569h-20.943l-0.266-13.604c0-15.542-26.877-15.231-27.678,0.271v73.162
		c0.267,15.971,27.678,15.705,27.678,0v-16.228h21.283v15.154C337.751,379.505,265.647,378.446,266.183,337.47z M366.052,425.539
		H350.64V174.392h15.411L366.052,425.539L366.052,425.539z M470.26,365.416h-34.717l-0.016-102.426
		c0-14.812-24.826-14.438-25.405,0.426v102h-31.124V349.67l9.837,0.029v-95.963l-11.696-0.062v-15.697h30.068l0.058,11.507
		c0,0,3.658-5.385,13.247-10.709c12.181-6.771,24.09-0.01,22.336-0.797c9.585,4.26,13.232,14.536,13.913,26.034v85.695h13.499
		V365.416z M476.918,337.468v-72.359c-0.532-40.966,71.497-40.992,70.171,1.035l0.022,34.754c0,2.156-1.756,3.896-3.917,3.896
		l-44.988-0.049v33.797c0.266,15.97,27.658,15.703,27.658,0v-16.229h21.302v15.153C548.485,379.503,476.385,378.445,476.918,337.468
		z M589.672,365.486c-6.65,0.104-13.155-3.121-11.331-2.316c-9.569-4.258-13.213-14.537-13.913-26.051l0.015-132.125h21.435v32.982
		l-0.077,0.252h20.519v15.443h-20.475l0.033,0.138l-0.033,85.015c0.405,8.133,5.401,10.883,11.154,10.812
		c4.533-0.043,13.106,0.062,13.106,0.062v15.76C610.104,365.458,593.138,365.438,589.672,365.486z"/>
</g>
</svg>
