<svg id="Layer_1" data-name="Layer 1" xmlns="http://www.w3.org/2000/svg" viewBox="0 0 138.98 23.79"><defs><style>.cls-1{fill:#b4b6b8;}</style></defs><title>featuredLogo_Mashable</title><g id="g13734"><path id="path13736" class="cls-1" d="M22.35,24.93V9.47L16.46,24.93H13.8L7.88,9.47V24.93h-6V1.56h8.38l4.91,12.89L20,1.56h8.38V24.93h-6Z" transform="translate(-1.85 -1.56)"/></g><g id="g13740"><g id="g13746"><path id="path13748" class="cls-1" d="M40.36,24.93V23.24a7,7,0,0,1-5.26,2.1,5.61,5.61,0,0,1-5.82-5.57c0-4.1,3.22-5.47,5.82-5.47a6.78,6.78,0,0,1,5.26,2V14.62c0-1.47-1.26-2.49-3.44-2.49A7.41,7.41,0,0,0,32.19,14l-2-3.75a11.94,11.94,0,0,1,7.68-2.63c4.06,0,7.88,1.5,7.88,6.76V24.93h-5.4Zm0-4.35v-1.5a3.74,3.74,0,0,0-3-1.19c-1.4,0-2.7.63-2.7,2s1.3,2,2.7,2a3.74,3.74,0,0,0,3-1.23" transform="translate(-1.85 -1.56)"/></g><g id="g13750"><path id="path13752" class="cls-1" d="M46.13,22.72l2.24-3.85a10.57,10.57,0,0,0,6,2.28c1.61,0,2.28-.46,2.28-1.19,0-2.1-9.84.07-9.84-6.79,0-3,2.59-5.57,7.25-5.57A11.82,11.82,0,0,1,61.1,9.82L59,13.64a7.55,7.55,0,0,0-5-1.85c-1.27,0-2.1.49-2.1,1.15,0,1.85,9.81-.07,9.81,6.87,0,3.22-2.84,5.53-7.67,5.53a12.47,12.47,0,0,1-8-2.63" transform="translate(-1.85 -1.56)"/></g><g id="g13754"><path id="path13756" class="cls-1" d="M73.92,24.93V15.08c0-2.07-1.09-2.73-2.8-2.73A4.16,4.16,0,0,0,67.86,14V24.93h-5.4V1.56h5.4v8.52a7.64,7.64,0,0,1,5.85-2.49c3.85,0,5.61,2.17,5.61,5.29V24.93h-5.4Z" transform="translate(-1.85 -1.56)"/></g><g id="g13758"><path id="path13760" class="cls-1" d="M91.16,24.93V23.24a7,7,0,0,1-5.26,2.1,5.61,5.61,0,0,1-5.82-5.57c0-4.1,3.22-5.47,5.82-5.47a6.78,6.78,0,0,1,5.26,2V14.62c0-1.47-1.26-2.49-3.44-2.49A7.41,7.41,0,0,0,83,14l-2-3.75a11.94,11.94,0,0,1,7.68-2.63c4.06,0,7.88,1.5,7.88,6.76V24.93h-5.4Zm0-4.35v-1.5a3.74,3.74,0,0,0-3-1.19c-1.4,0-2.7.63-2.7,2s1.3,2,2.7,2a3.74,3.74,0,0,0,3-1.23" transform="translate(-1.85 -1.56)"/></g><g id="g13762"><path id="path13764" class="cls-1" d="M98.41,24.93V1.56h5.4V10a6.24,6.24,0,0,1,5-2.42c4.24,0,7.46,3.33,7.46,8.86,0,5.75-3.29,8.9-7.46,8.9a6.47,6.47,0,0,1-5-2.38v2h-5.4ZM107,20.58c2.14,0,3.75-1.58,3.75-4.13s-1.61-4.1-3.75-4.1a4.32,4.32,0,0,0-3.22,1.54v5.18a4.28,4.28,0,0,0,3.22,1.5" transform="translate(-1.85 -1.56)"/></g></g><path id="path13766" class="cls-1" d="M117,1.56h5.4V24.93H117V1.56Z" transform="translate(-1.85 -1.56)"/><g id="g13776"><path id="path13778" class="cls-1" d="M123.21,16.45a8.7,8.7,0,0,1,9-8.86c5,0,8.65,3.68,8.65,9.43v1.23H128.78c0.38,1.5,1.79,2.77,4.24,2.77a7,7,0,0,0,4.14-1.44l2.35,3.54a11,11,0,0,1-7.08,2.24c-5.22,0-9.21-3.4-9.21-8.9m9-4.52a3.15,3.15,0,0,0-3.47,2.63h7c-0.14-1.19-1-2.63-3.5-2.63" transform="translate(-1.85 -1.56)"/></g></svg>