<svg id="vectors" xmlns="http://www.w3.org/2000/svg" viewBox="0 0 104.86 26.28"><defs><style>.cls-1{fill:#b5b7b9;fill-rule:evenodd;}</style></defs><title>featuredLogo_Forbes</title><path class="cls-1" d="M932.92,558.79a8.59,8.59,0,0,0-4.34,1.08c0-3.86,0-7.35.12-8.56l-8.08,1.45v0.72l0.84,0.12c1.08,0.24,1.45.84,1.69,2.29,0.24,2.89.12,18.32,0,20.85a31.33,31.33,0,0,0,6.75.84c6.39,0,10.24-4,10.24-10.24,0-4.94-3.13-8.56-7.23-8.56h0Zm-2.77,17.48a5.41,5.41,0,0,1-1.45-.12c-0.12-1.69-.24-8.8-0.12-15.07a5.33,5.33,0,0,1,1.81-.36c2.65,0,4.1,3.13,4.1,7,0,4.82-1.81,8.56-4.34,8.56h0Z" transform="translate(-869.05 -551.32)"/><path class="cls-1" d="M890.26,551.8H869v1.08l1.21,0.12c1.57,0.24,2.17,1.2,2.41,3.5a139.71,139.71,0,0,1,0,15.91c-0.24,2.29-.84,3.37-2.41,3.5l-1.21.24v1h13.62v-1l-1.45-.24c-1.57-.12-2.17-1.21-2.41-3.5-0.12-1.57-.24-4.1-0.24-7.23l2.89,0.12c1.81,0,2.65,1.45,3,3.5h1.08v-8.56h-1.08c-0.36,2-1.2,3.5-3,3.5l-2.89.12c0-4.1.12-8,.24-10.24H883c3.25,0,4.94,2,6.15,5.66l1.21-.36-0.12-7.11h0Z" transform="translate(-869.05 -551.32)"/><path class="cls-1" d="M897.13,558.55c6,0,9,4.1,9,9.52,0,5.18-3.37,9.52-9.4,9.52s-9-4.1-9-9.52c0-5.18,3.37-9.52,9.4-9.52h0Zm-0.36,1.21c-2.65,0-3.37,3.62-3.37,8.32s1.21,8.32,3.62,8.32c2.77,0,3.49-3.62,3.49-8.32s-1.21-8.32-3.74-8.32h0Z" transform="translate(-869.05 -551.32)"/><path class="cls-1" d="M941.72,568.19c0-4.94,3.13-9.64,9.28-9.64,5.06,0,7.47,3.74,7.47,8.68H947.27c-0.12,4.46,2,7.71,6.39,7.71a6.19,6.19,0,0,0,4.1-1.33l0.48,0.6a9,9,0,0,1-7.23,3.37c-5.42,0-9.28-3.86-9.28-9.4h0Zm5.54-2.29,5.66-.12c0-2.41-.36-6-2.41-6s-3.13,3.37-3.25,6.15h0Z" transform="translate(-869.05 -551.32)"/><path class="cls-1" d="M972.82,559.51a14.74,14.74,0,0,0-5.54-1c-4.46,0-7.23,2.65-7.23,5.79s2,4.46,4.94,5.42,3.86,1.93,3.86,3.37a2.79,2.79,0,0,1-3,2.77c-2.29,0-4-1.33-5.3-4.94l-0.84.24,0.12,5.3a19,19,0,0,0,6.39,1.08c4.7,0,7.71-2.41,7.71-6.15,0-2.53-1.33-4-4.46-5.18-3.37-1.33-4.58-2.17-4.58-3.74a2.5,2.5,0,0,1,2.53-2.65c2.17,0,3.62,1.33,4.7,4.58l0.84-.24-0.12-4.7h0Z" transform="translate(-869.05 -551.32)"/><path class="cls-1" d="M921.84,559c-2-1.21-5.66-.6-7.59,3.74l0.12-4.22-8.08,1.57v0.72l0.84,0.12c1.08,0.12,1.57.72,1.69,2.29a101.23,101.23,0,0,1,0,10.49c-0.12,1.45-.6,2.17-1.69,2.29l-0.84.12v1H917.5v-1l-1.45-.12c-1.21-.12-1.57-0.84-1.69-2.29a86.08,86.08,0,0,1-.12-9.76c0.6-.84,3.25-1.57,5.66,0l1.93-4.94h0Z" transform="translate(-869.05 -551.32)"/></svg>