<?xml version="1.0" encoding="UTF-8" standalone="no"?>
<svg width="121px" height="31px" viewBox="0 0 121 31" version="1.1" xmlns="http://www.w3.org/2000/svg" xmlns:xlink="http://www.w3.org/1999/xlink" xmlns:sketch="http://www.bohemiancoding.com/sketch/ns">
    <!-- Generator: Sketch 3.4.4 (17249) - http://www.bohemiancoding.com/sketch -->
    <title>instaread_logo_grey</title>
    <desc>Created with Sketch.</desc>
    <defs></defs>
    <g id="Landing-Page" stroke="none" stroke-width="1" fill="none" fill-rule="evenodd" sketch:type="MSPage">
        <g id="Landing-Page-Index" sketch:type="MSArtboardGroup" transform="translate(-167.000000, -46.000000)" fill="#484444">
            <g id="instaread_logo_white" sketch:type="MSLayerGroup" transform="translate(167.000000, 46.000000)">
                <path d="M18,0 L0,0 L0,22.8734658 C0,25.0788498 1.78548839,26.8666667 3.99891754,26.8666667 L6.23076923,26.8666667 L6.23076923,31 L9,28.9333333 L11.7931034,31 L11.7931036,26.8666667 L13.9988997,26.8666667 C16.2086464,26.8666667 18,25.0832195 18,22.8662745 L18,16.1888889 L18,4.13333333 L1.38461538,4.13333333 L1.38461538,3.44444444 L18,3.44444444 L18,2.06666568 L1.38461538,2.06666568 L1.38461538,1.37777778 L18,1.37777778 L18,0 Z M9,12.4 C10.5294039,12.4 11.7692308,11.1662958 11.7692308,9.64444444 C11.7692308,8.12259313 10.5294039,6.88888889 9,6.88888889 C7.47059608,6.88888889 6.23076923,8.12259313 6.23076923,9.64444444 C6.23076923,11.1662958 7.47059608,12.4 9,12.4 Z M6.23076923,14.4666667 L11.7692308,14.4666667 L11.7692308,26.2466669 L6.23076923,26.2466669 L6.23076923,14.4666667 Z" id="Path-7" sketch:type="MSShapeGroup"></path>
                <path d="M29.640625,22 L26.7578125,22 L26.7578125,6.00390625 L29.640625,6.00390625 L29.640625,22 Z M42.8007812,22 L40.1289062,22 L40.1289062,14.6054688 C40.1289062,13.8242148 39.9492205,13.2363301 39.5898438,12.8417969 C39.230467,12.4472637 38.7968775,12.25 38.2890625,12.25 C37.5937465,12.25 36.9843776,12.5546845 36.4609375,13.1640625 C35.9374974,13.7734405 35.6757812,14.6914001 35.6757812,15.9179688 L35.6757812,22 L33.0039062,22 L33.0039062,10.1640625 L35.4414062,10.1640625 L35.4414062,12.90625 C36.292973,10.9140525 37.4882736,9.91796875 39.0273438,9.91796875 C40.0664114,9.91796875 40.9550744,10.2460905 41.6933594,10.9023438 C42.4316443,11.558597 42.8007812,12.7109293 42.8007812,14.359375 L42.8007812,22 Z M44.5585938,19.28125 L47.0664062,18.8007812 C47.4492207,19.7617236 48.2929622,20.2421875 49.5976562,20.2421875 C51.2539145,20.2421875 52.0820312,19.7539111 52.0820312,18.7773438 C52.0820312,18.4648422 51.9531263,18.2070323 51.6953125,18.0039062 C51.4374987,17.8007802 51.1328143,17.6640629 50.78125,17.59375 L48.625,17.1835938 C46.234363,16.7226539 45.0390625,15.5546969 45.0390625,13.6796875 C45.0390625,12.6328073 45.417965,11.7441443 46.1757812,11.0136719 C46.9335975,10.2831995 48.0624925,9.91796875 49.5625,9.91796875 C52.0625125,9.91796875 53.589841,10.8359283 54.1445312,12.671875 L51.765625,13.1523438 C51.5156237,12.2617143 50.8046934,11.8164062 49.6328125,11.8164062 C48.2109304,11.8164062 47.5,12.2617143 47.5,13.1523438 C47.5,13.7695343 48.074213,14.1953113 49.2226562,14.4296875 L51.765625,14.9570312 C53.7421974,15.3632833 54.7304688,16.4960845 54.7304688,18.3554688 C54.7304688,19.6601628 54.2226613,20.6347624 53.2070312,21.2792969 C52.1914012,21.9238313 50.984382,22.2460938 49.5859375,22.2460938 C48.3749939,22.2460938 47.3046921,22.0019556 46.375,21.5136719 C45.4453079,21.0253882 44.8398452,20.281255 44.5585938,19.28125 L44.5585938,19.28125 Z M62.3828125,19.9140625 L62.3828125,22 C61.5859335,22.1718759 60.9687522,22.2578125 60.53125,22.2578125 C59.8124964,22.2578125 59.1953151,22.1152358 58.6796875,21.8300781 C58.1640599,21.5449204 57.7871106,21.1542994 57.5488281,20.6582031 C57.3105457,20.1621069 57.1914062,19.3984427 57.1914062,18.3671875 L57.1914062,12.2382812 L55.7148438,12.2382812 L55.7148438,10.1640625 L57.34375,10.1640625 L57.5898438,7.08203125 L59.78125,6.8828125 L59.78125,10.1640625 L62.1601562,10.1640625 L62.1601562,12.2382812 L59.78125,12.2382812 L59.78125,18.015625 C59.78125,18.7578162 59.9160143,19.2636705 60.1855469,19.5332031 C60.4550795,19.8027357 60.96484,19.9375 61.7148438,19.9375 C61.9257823,19.9375 62.1484363,19.9296876 62.3828125,19.9140625 L62.3828125,19.9140625 Z M74.7578125,22 L72.2148438,22 C71.9882801,21.2812464 71.8515627,20.4843794 71.8046875,19.609375 C71.0937464,21.3671963 69.7578223,22.2460938 67.796875,22.2460938 C66.6171816,22.2460938 65.6699254,21.9003941 64.9550781,21.2089844 C64.2402308,20.5175747 63.8828125,19.6484427 63.8828125,18.6015625 C63.8828125,15.8827989 66.2695074,14.5234375 71.0429688,14.5234375 C71.2304697,14.5234375 71.4843734,14.5273437 71.8046875,14.5351562 L71.8046875,13.6445312 C71.8046875,12.4179626 70.9687584,11.8046875 69.296875,11.8046875 C67.6718669,11.8046875 66.7500011,12.4179626 66.53125,13.6445312 L64.2578125,13.3046875 C64.3828131,12.3203076 64.8906205,11.5097688 65.78125,10.8730469 C66.6718795,10.2363249 67.9609291,9.91796875 69.6484375,9.91796875 C70.5625046,9.91796875 71.3085909,9.99413986 71.8867188,10.1464844 C72.4648466,10.2988289 72.953123,10.5566388 73.3515625,10.9199219 C73.750002,11.2832049 74.0253899,11.6777322 74.1777344,12.1035156 C74.3300789,12.529299 74.40625,13.2499949 74.40625,14.265625 L74.40625,19.609375 C74.40625,20.3828164 74.5234363,21.1796834 74.7578125,22 L74.7578125,22 Z M71.8046875,15.9765625 C68.3515452,15.9765625 66.625,16.800773 66.625,18.4492188 C66.625,18.9414087 66.7988264,19.3613264 67.1464844,19.7089844 C67.4941424,20.0566424 68.0195277,20.2304688 68.7226562,20.2304688 C69.7382863,20.2304688 70.5058568,19.9082063 71.0253906,19.2636719 C71.5449245,18.6191374 71.8046875,17.8867229 71.8046875,17.0664062 L71.8046875,15.9765625 Z M80.2773438,22 L77.6054688,22 L77.6054688,10.1640625 L80.0195312,10.1640625 L80.0195312,12.9882812 C80.363283,11.8867132 80.8359345,11.0820338 81.4375,10.5742188 C82.0390655,10.0664037 82.6562468,9.8125 83.2890625,9.8125 C83.3750004,9.8125 83.4921868,9.81640621 83.640625,9.82421875 L83.640625,12.6953125 C82.2812432,12.6953125 81.3808616,13.1289019 80.9394531,13.9960938 C80.4980447,14.8632856 80.2773438,15.7031209 80.2773438,16.515625 L80.2773438,22 Z M93.0859375,18.2265625 L95.5,18.5546875 C95.1874984,19.6250054 94.5781295,20.507809 93.671875,21.203125 C92.7656205,21.898441 91.6289131,22.2460938 90.2617188,22.2460938 C88.6210855,22.2460938 87.3007863,21.695318 86.3007812,20.59375 C85.3007762,19.492182 84.8007812,18.0000094 84.8007812,16.1171875 C84.8007812,14.3281161 85.3046825,12.8476621 86.3125,11.6757812 C87.3203175,10.5039004 88.6874914,9.91796875 90.4140625,9.91796875 C92.1015709,9.91796875 93.4062454,10.496088 94.328125,11.6523438 C95.2500046,12.8085995 95.7109375,14.2929597 95.7109375,16.1054688 L95.6992188,16.4101562 L87.578125,16.4101562 C87.578125,17.2148478 87.6542961,17.8593726 87.8066406,18.34375 C87.9589851,18.8281274 88.2617165,19.2499982 88.7148438,19.609375 C89.167971,19.9687518 89.7343716,20.1484375 90.4140625,20.1484375 C91.7343816,20.1484375 92.6249977,19.5078189 93.0859375,18.2265625 L93.0859375,18.2265625 Z M92.921875,14.6875 C92.9140625,13.8359332 92.6582056,13.1406277 92.1542969,12.6015625 C91.6503881,12.0624973 91.0273475,11.7929688 90.2851562,11.7929688 C89.5507776,11.7929688 88.9375025,12.0449194 88.4453125,12.5488281 C87.9531225,13.0527369 87.6640629,13.7656204 87.578125,14.6875 L92.921875,14.6875 Z M108.273438,22 L105.730469,22 C105.503905,21.2812464 105.367188,20.4843794 105.320312,19.609375 C104.609371,21.3671963 103.273447,22.2460938 101.3125,22.2460938 C100.132807,22.2460938 99.1855504,21.9003941 98.4707031,21.2089844 C97.7558558,20.5175747 97.3984375,19.6484427 97.3984375,18.6015625 C97.3984375,15.8827989 99.7851324,14.5234375 104.558594,14.5234375 C104.746095,14.5234375 104.999998,14.5273437 105.320312,14.5351562 L105.320312,13.6445312 C105.320312,12.4179626 104.484383,11.8046875 102.8125,11.8046875 C101.187492,11.8046875 100.265626,12.4179626 100.046875,13.6445312 L97.7734375,13.3046875 C97.8984381,12.3203076 98.4062455,11.5097688 99.296875,10.8730469 C100.187504,10.2363249 101.476554,9.91796875 103.164062,9.91796875 C104.07813,9.91796875 104.824216,9.99413986 105.402344,10.1464844 C105.980472,10.2988289 106.468748,10.5566388 106.867188,10.9199219 C107.265627,11.2832049 107.541015,11.6777322 107.693359,12.1035156 C107.845704,12.529299 107.921875,13.2499949 107.921875,14.265625 L107.921875,19.609375 C107.921875,20.3828164 108.039061,21.1796834 108.273438,22 L108.273438,22 Z M105.320312,15.9765625 C101.86717,15.9765625 100.140625,16.800773 100.140625,18.4492188 C100.140625,18.9414087 100.314451,19.3613264 100.662109,19.7089844 C101.009767,20.0566424 101.535153,20.2304688 102.238281,20.2304688 C103.253911,20.2304688 104.021482,19.9082063 104.541016,19.2636719 C105.060549,18.6191374 105.320312,17.8867229 105.320312,17.0664062 L105.320312,15.9765625 Z M120.847656,22 L118.351562,22 L118.351562,19.609375 C117.664059,21.3671963 116.500008,22.2460938 114.859375,22.2460938 C113.406243,22.2460938 112.292973,21.6406311 111.519531,20.4296875 C110.74609,19.2187439 110.359375,17.7148527 110.359375,15.9179688 C110.359375,14.2460854 110.761715,12.7890687 111.566406,11.546875 C112.371098,10.3046813 113.515618,9.68359375 115,9.68359375 C116.523445,9.68359375 117.582028,10.3788993 118.175781,11.7695312 L118.175781,6.00390625 L120.847656,6.00390625 L120.847656,22 Z M118.175781,15.015625 C118.175781,14.0546827 117.947268,13.3066433 117.490234,12.7714844 C117.033201,12.2363254 116.44141,11.96875 115.714844,11.96875 C114.925777,11.96875 114.308596,12.3124966 113.863281,13 C113.417967,13.6875034 113.195312,14.7148369 113.195312,16.0820312 C113.195312,18.7226695 114.023429,20.0429688 115.679688,20.0429688 C116.335941,20.0429688 116.916013,19.7597685 117.419922,19.1933594 C117.923831,18.6269503 118.175781,17.9023482 118.175781,17.0195312 L118.175781,15.015625 Z" id="Instaread" sketch:type="MSShapeGroup"></path>
            </g>
        </g>
    </g>
</svg>